<svg xmlns="http://www.w3.org/2000/svg" width="32" height="32" fill="currentColor" viewBox="0 0 256 256"><path d="M100,40H56A16,16,0,0,0,40,56v44a16,16,0,0,0,16,16h44a16,16,0,0,0,16-16V56A16,16,0,0,0,100,40Zm0,60H56V56h44ZM200,40H156a16,16,0,0,0-16,16v44a16,16,0,0,0,16,16h44a16,16,0,0,0,16-16V56A16,16,0,0,0,200,40Zm0,60H156V56h44ZM100,140H56a16,16,0,0,0-16,16v44a16,16,0,0,0,16,16h44a16,16,0,0,0,16-16V156A16,16,0,0,0,100,140Zm0,60H56V156h44Zm100-60H156a16,16,0,0,0-16,16v44a16,16,0,0,0,16,16h44a16,16,0,0,0,16-16V156A16,16,0,0,0,200,140Zm0,60H156V156h44Z"/></svg>
