<svg xmlns="http://www.w3.org/2000/svg" width="32" height="32" fill="currentColor" viewBox="0 0 256 256"><path d="M224,48H160a43.86,43.86,0,0,0-32,13.85A43.86,43.86,0,0,0,96,48H32A16,16,0,0,0,16,64V192a16,16,0,0,0,16,16H96a24,24,0,0,1,24,24,8,8,0,0,0,16,0,24,24,0,0,1,24-24h64a16,16,0,0,0,16-16V64A16,16,0,0,0,224,48ZM96,192H32V64H96a28,28,0,0,1,28,28V209.4A39.76,39.76,0,0,0,96,192Zm128,0H160a39.76,39.76,0,0,0-28,17.4V92a28,28,0,0,1,28-28h64ZM160,88h40a8,8,0,0,1,0,16H160a8,8,0,0,1,0-16Zm48,40a8,8,0,0,1-8,8H160a8,8,0,0,1,0-16h40A8,8,0,0,1,208,128Zm0,32a8,8,0,0,1-8,8H160a8,8,0,0,1,0-16h40A8,8,0,0,1,208,160Z"/></svg>
